<svg width="960" height="600" version="1.1" xmlns="http://www.w3.org/2000/svg"><g></g><g transform="translate(480,300)scale(1.7857142686843872,1.7857142686843872)"><text text-anchor="middle" transform="translate(190,-142)rotate(35.99999933864986)skewX(3.1805546758693503e-15)scale(1.000000001758865,1.000000001758865)" style="font-size: 10px; font-family: Impact; fill: rgb(181, 207, 107);">dom</text><text text-anchor="middle" transform="translate(37,45)rotate(-59.99999955470795)scale(0.9999999865388264,0.9999999865388264)" style="font-size: 10px; font-family: Impact; fill: rgb(82, 84, 163);">dobrý</text><text text-anchor="middle" transform="translate(84,29)rotate(-11.999999380000414)skewX(-1.5902773034365522e-15)scale(1.0000000234520143,1.0000000234520143)" style="font-size: 10px; font-family: Impact; fill: rgb(107, 110, 207);">zlý</text><text text-anchor="middle" transform="translate(-10,25)rotate(-59.99999955470795)scale(0.9999999865388264,0.9999999865388264)" style="font-size: 10px; font-family: Impact; fill: rgb(156, 158, 222);">veľký</text><text text-anchor="middle" transform="translate(130,-4)rotate(35.99999933864986)skewX(3.1805546758693503e-15)scale(1.000000001758865,1.000000001758865)" style="font-size: 10px; font-family: Impact; fill: rgb(99, 121, 57);">malý</text><text text-anchor="middle" transform="translate(-39,16)rotate(-11.999999380000418)skewX(-1.5902773034365518e-15)scale(1.0000000234520143,1.0000000234520143)" style="font-size: 10px; font-family: Impact; fill: rgb(140, 162, 82);">nový</text><text text-anchor="middle" transform="translate(25,76)rotate(-59.99999955470795)scale(0.9999999865388264,0.9999999865388264)" style="font-size: 10px; font-family: Impact; fill: rgb(181, 207, 107);">starý</text><text text-anchor="middle" transform="translate(51,104)rotate(-11.999999380000416)skewX(-1.5902773034365522e-15)scale(1.0000000234520143,1.0000000234520143)" style="font-size: 10px; font-family: Impact; fill: rgb(206, 219, 156);">dôležitý</text><text text-anchor="middle" transform="translate(193,-47)rotate(59.999999554707955)scale(0.9999999865388264,0.9999999865388264)" style="font-size: 10px; font-family: Impact; fill: rgb(140, 109, 49);">jednoduchý</text><text text-anchor="middle" transform="translate(-2,-92)rotate(47.99999869121278)scale(1.0000000000094964,1.0000000000094964)" style="font-size: 10px; font-family: Impact; fill: rgb(189, 158, 57);">ťažký</text><text text-anchor="middle" transform="translate(-83,-15)rotate(35.99999933864986)skewX(3.1805546758693503e-15)scale(1.000000001758865,1.000000001758865)" style="font-size: 10px; font-family: Impact; fill: rgb(231, 186, 82);">rýchly</text><text text-anchor="middle" transform="translate(-132,14)rotate(47.99999869121278)scale(1.0000000000094964,1.0000000000094964)" style="font-size: 10px; font-family: Impact; fill: rgb(231, 203, 148);">pomalý</text><text text-anchor="middle" transform="translate(-25,68)rotate(0)scale(1,1)" style="font-size: 10px; font-family: Impact; fill: rgb(132, 60, 57);">pekný</text><text text-anchor="middle" transform="translate(139,110)rotate(-59.99999955470795)scale(0.9999999865388264,0.9999999865388264)" style="font-size: 10px; font-family: Impact; fill: rgb(173, 73, 74);">silný</text><text text-anchor="middle" transform="translate(201,-122)rotate(-35.99999933864986)skewX(-3.1805546758693503e-15)scale(1.000000001758865,1.000000001758865)" style="font-size: 10px; font-family: Impact; fill: rgb(214, 97, 107);">slabý</text><text text-anchor="middle" transform="translate(75,63)rotate(-59.999999554707955)skewX(0)scale(0.9999999865388264,0.9999999865388264)" style="font-size: 10px; font-family: Impact; fill: rgb(231, 150, 156);">správny</text><text text-anchor="middle" transform="translate(-112,55)rotate(-11.999999380000418)skewX(-1.5902773034365522e-15)scale(1.0000000234520143,1.0000000234520143)" style="font-size: 10px; font-family: Impact; fill: rgb(123, 65, 115);">celý</text><text text-anchor="middle" transform="translate(233,91)rotate(24.000000601119353)skewX(-3.1805547638674516e-15)scale(0.9999999740913329,0.9999999740913329)" style="font-size: 10px; font-family: Impact; fill: rgb(165, 81, 148);">prvý</text><text text-anchor="middle" transform="translate(-24,94)rotate(59.999999554707955)skewX(0)scale(0.9999999865388264,0.9999999865388264)" style="font-size: 10px; font-family: Impact; fill: rgb(206, 109, 189);">posledný</text><text text-anchor="middle" transform="translate(210,-86)rotate(24.00000060111935)skewX(-3.180554763867452e-15)scale(0.9999999740913329,0.9999999740913329)" style="font-size: 10px; font-family: Impact; fill: rgb(222, 158, 214);">iný</text><text text-anchor="middle" transform="translate(-8,-62)rotate(0)scale(1,1)" style="font-size: 10px; font-family: Impact; fill: rgb(57, 59, 121);">rovnaký</text><text text-anchor="middle" transform="translate(103,116)rotate(-11.999999380000416)skewX(-1.5902773034365522e-15)scale(1.0000000234520143,1.0000000234520143)" style="font-size: 10px; font-family: Impact; fill: rgb(82, 84, 163);">vlastný</text><text text-anchor="middle" transform="translate(27,-6)rotate(-35.99999933864985)skewX(-3.1805546758693503e-15)scale(1.000000001758865,1.000000001758865)" style="font-size: 10px; font-family: Impact; fill: rgb(107, 110, 207);">verejný</text><text text-anchor="middle" transform="translate(222,116)rotate(35.99999933864986)skewX(3.1805546758693503e-15)scale(1.000000001758865,1.000000001758865)" style="font-size: 10px; font-family: Impact; fill: rgb(156, 158, 222);">súkromný</text><text text-anchor="middle" transform="translate(150,-10)rotate(11.999999380000418)skewX(1.5902773034365526e-15)scale(1.0000000234520143,1.0000000234520143)" style="font-size: 10px; font-family: Impact; fill: rgb(99, 121, 57);">mladý</text><text text-anchor="middle" transform="translate(-3,79)rotate(-47.99999869121278)skewX(0)scale(1.0000000000094964,1.0000000000094964)" style="font-size: 10px; font-family: Impact; fill: rgb(140, 162, 82);">starší</text><text text-anchor="middle" transform="translate(-195,-127)rotate(24.00000060111935)skewX(-3.1805547638674516e-15)scale(0.9999999740913329,0.9999999740913329)" style="font-size: 10px; font-family: Impact; fill: rgb(181, 207, 107);">človek</text><text text-anchor="middle" transform="translate(-160,-94)rotate(47.99999869121278)scale(1.0000000000094964,1.0000000000094964)" style="font-size: 10px; font-family: Impact; fill: rgb(206, 219, 156);">ľudia</text><text text-anchor="middle" transform="translate(-59,-134)rotate(-11.999999380000418)skewX(-1.5902773034365522e-15)scale(1.0000000234520143,1.0000000234520143)" style="font-size: 10px; font-family: Impact; fill: rgb(140, 109, 49);">čas</text><text text-anchor="middle" transform="translate(-22,-35)rotate(-35.99999933864986)skewX(-3.1805546758693503e-15)scale(1.000000001758865,1.000000001758865)" style="font-size: 10px; font-family: Impact; fill: rgb(189, 158, 57);">deň</text><text text-anchor="middle" transform="translate(-10,-11)rotate(0)skewX(0)scale(1,1)" style="font-size: 10px; font-family: Impact; fill: rgb(231, 186, 82);">rok</text><text text-anchor="middle" transform="translate(43,12)rotate(-35.99999933864986)skewX(-3.1805546758693507e-15)scale(1.000000001758865,1.000000001758865)" style="font-size: 10px; font-family: Impact; fill: rgb(231, 203, 148);">život</text><text text-anchor="middle" transform="translate(117,93)rotate(59.99999955470795)scale(0.9999999865388264,0.9999999865388264)" style="font-size: 10px; font-family: Impact; fill: rgb(132, 60, 57);">svet</text><text text-anchor="middle" transform="translate(60,-2)rotate(24.00000060111935)skewX(-3.1805547638674516e-15)scale(0.9999999740913329,0.9999999740913329)" style="font-size: 10px; font-family: Impact; fill: rgb(173, 73, 74);">práca</text><text text-anchor="middle" transform="translate(-24,-3)rotate(0)scale(1,1)" style="font-size: 10px; font-family: Impact; fill: rgb(214, 97, 107);">peniaze</text><text text-anchor="middle" transform="translate(-88,98)rotate(47.99999869121278)scale(1.0000000000094964,1.0000000000094964)" style="font-size: 10px; font-family: Impact; fill: rgb(231, 150, 156);">mesto</text><text text-anchor="middle" transform="translate(-163,12)rotate(24.00000060111935)skewX(-3.1805547638674516e-15)scale(0.9999999740913329,0.9999999740913329)" style="font-size: 10px; font-family: Impact; fill: rgb(123, 65, 115);">škola</text><text text-anchor="middle" transform="translate(-28,47)rotate(35.99999933864986)skewX(3.1805546758693503e-15)scale(1.000000001758865,1.000000001758865)" style="font-size: 10px; font-family: Impact; fill: rgb(165, 81, 148);">rodina</text><text text-anchor="middle" transform="translate(65,-42)rotate(35.99999933864985)skewX(3.1805546758693503e-15)scale(1.000000001758865,1.000000001758865)" style="font-size: 10px; font-family: Impact; fill: rgb(206, 109, 189);">priateľ</text><text text-anchor="middle" transform="translate(-149,-107)rotate(59.999999554707955)scale(0.9999999865388264,0.9999999865388264)" style="font-size: 10px; font-family: Impact; fill: rgb(222, 158, 214);">láska</text><text text-anchor="middle" transform="translate(94,141)rotate(24.00000060111935)skewX(-3.1805547638674516e-15)scale(0.9999999740913329,0.9999999740913329)" style="font-size: 10px; font-family: Impact; fill: rgb(57, 59, 121);">problém</text><text text-anchor="middle" transform="translate(-206,35)rotate(24.00000060111935)skewX(-3.1805547638674516e-15)scale(0.9999999740913329,0.9999999740913329)" style="font-size: 10px; font-family: Impact; fill: rgb(82, 84, 163);">pravda</text><text text-anchor="middle" transform="translate(66,-26)rotate(47.99999869121278)scale(1.0000000000094964,1.0000000000094964)" style="font-size: 10px; font-family: Impact; fill: rgb(107, 110, 207);">otázka</text><text text-anchor="middle" transform="translate(98,14)rotate(11.999999380000416)skewX(1.5902773034365522e-15)scale(1.0000000234520143,1.0000000234520143)" style="font-size: 10px; font-family: Impact; fill: rgb(156, 158, 222);">odpoveď</text><text text-anchor="middle" transform="translate(209,-148)rotate(-47.99999869121278)scale(1.0000000000094964,1.0000000000094964)" style="font-size: 10px; font-family: Impact; fill: rgb(99, 121, 57);">vec</text><text text-anchor="middle" transform="translate(222,21)rotate(-35.99999933864986)skewX(-3.1805546758693503e-15)scale(1.000000001758865,1.000000001758865)" style="font-size: 10px; font-family: Impact; fill: rgb(140, 162, 82);">miesto</text><text text-anchor="middle" transform="translate(232,-129)rotate(-11.999999380000418)skewX(-1.5902773034365522e-15)scale(1.0000000234520143,1.0000000234520143)" style="font-size: 10px; font-family: Impact; fill: rgb(181, 207, 107);">spôsob</text><text text-anchor="middle" transform="translate(-207,-98)rotate(-35.99999933864986)skewX(-3.1805546758693503e-15)scale(1.000000001758865,1.000000001758865)" style="font-size: 10px; font-family: Impact; fill: rgb(206, 219, 156);">príklad</text><text text-anchor="middle" transform="translate(-39,-70)rotate(0)scale(1,1)" style="font-size: 10px; font-family: Impact; fill: rgb(140, 109, 49);">cesta</text><text text-anchor="middle" transform="translate(196,3)rotate(47.99999869121278)scale(1.0000000000094964,1.0000000000094964)" style="font-size: 10px; font-family: Impact; fill: rgb(189, 158, 57);">krajina</text><text text-anchor="middle" transform="translate(-227,-131)rotate(47.99999869121278)scale(1.0000000000094964,1.0000000000094964)" style="font-size: 10px; font-family: Impact; fill: rgb(231, 186, 82);">právo</text><text text-anchor="middle" transform="translate(128,-28)rotate(11.999999380000416)skewX(1.5902773034365522e-15)scale(1.0000000234520143,1.0000000234520143)" style="font-size: 10px; font-family: Impact; fill: rgb(231, 203, 148);">zdravie</text><text text-anchor="middle" transform="translate(30,-23)rotate(-35.99999933864986)skewX(-3.1805546758693503e-15)scale(1.000000001758865,1.000000001758865)" style="font-size: 10px; font-family: Impact; fill: rgb(132, 60, 57);">voda</text><text text-anchor="middle" transform="translate(113,-7)rotate(-59.99999955470794)scale(0.9999999865388264,0.9999999865388264)" style="font-size: 10px; font-family: Impact; fill: rgb(173, 73, 74);">jedlo</text><text text-anchor="middle" transform="translate(107,48)rotate(59.99999955470795)skewX(0)scale(0.9999999865388264,0.9999999865388264)" style="font-size: 10px; font-family: Impact; fill: rgb(214, 97, 107);">budúcnosť</text><text text-anchor="middle" transform="translate(-146,-73)rotate(11.999999380000416)skewX(1.5902773034365522e-15)scale(1.0000000234520143,1.0000000234520143)" style="font-size: 10px; font-family: Impact; fill: rgb(231, 150, 156);">minulosť</text><text text-anchor="middle" transform="translate(-220,54)rotate(0)skewX(0)scale(1,1)" style="font-size: 10px; font-family: Impact; fill: rgb(123, 65, 115);">prítomnosť</text><text text-anchor="middle" transform="translate(-128,-127)rotate(-35.99999933864986)skewX(-3.1805546758693503e-15)scale(1.000000001758865,1.000000001758865)" style="font-size: 10px; font-family: Impact; fill: rgb(165, 81, 148);">cieľ</text><text text-anchor="middle" transform="translate(94,-8)rotate(-11.999999380000416)skewX(-1.5902773034365522e-15)scale(1.0000000234520143,1.0000000234520143)" style="font-size: 10px; font-family: Impact; fill: rgb(206, 109, 189);">byť</text><text text-anchor="middle" transform="translate(62,15)rotate(59.99999955470795)scale(0.9999999865388264,0.9999999865388264)" style="font-size: 10px; font-family: Impact; fill: rgb(222, 158, 214);">mať</text><text text-anchor="middle" transform="translate(-218,-40)rotate(-47.99999869121278)scale(1.0000000000094964,1.0000000000094964)" style="font-size: 10px; font-family: Impact; fill: rgb(57, 59, 121);">robiť</text><text text-anchor="middle" transform="translate(-109,-61)rotate(-24.00000060111935)skewX(3.1805547638674516e-15)scale(0.9999999740913329,0.9999999740913329)" style="font-size: 10px; font-family: Impact; fill: rgb(82, 84, 163);">povedať</text><text text-anchor="middle" transform="translate(-138,83)rotate(35.99999933864986)skewX(3.1805546758693503e-15)scale(1.000000001758865,1.000000001758865)" style="font-size: 10px; font-family: Impact; fill: rgb(107, 110, 207);">vidieť</text><text text-anchor="middle" transform="translate(-8,-112)rotate(-35.99999933864986)skewX(-3.1805546758693503e-15)scale(1.000000001758865,1.000000001758865)" style="font-size: 10px; font-family: Impact; fill: rgb(156, 158, 222);">myslieť</text><text text-anchor="middle" transform="translate(-168,-141)rotate(-24.00000060111935)skewX(3.1805547638674516e-15)scale(0.9999999740913329,0.9999999740913329)" style="font-size: 10px; font-family: Impact; fill: rgb(99, 121, 57);">vedieť</text><text text-anchor="middle" transform="translate(-114,-25)rotate(0)scale(1,1)" style="font-size: 10px; font-family: Impact; fill: rgb(140, 162, 82);">chcieť</text><text text-anchor="middle" transform="translate(-1,-47)rotate(24.00000060111935)skewX(-3.1805547638674516e-15)scale(0.9999999740913329,0.9999999740913329)" style="font-size: 10px; font-family: Impact; fill: rgb(181, 207, 107);">môcť</text><text text-anchor="middle" transform="translate(159,83)rotate(59.99999955470795)skewX(0)scale(0.9999999865388264,0.9999999865388264)" style="font-size: 10px; font-family: Impact; fill: rgb(206, 219, 156);">dať</text><text text-anchor="middle" transform="translate(-175,141)rotate(59.99999955470795)skewX(0)scale(0.9999999865388264,0.9999999865388264)" style="font-size: 10px; font-family: Impact; fill: rgb(140, 109, 49);">ísť</text><text text-anchor="middle" transform="translate(211,-2)rotate(35.99999933864986)skewX(3.1805546758693503e-15)scale(1.000000001758865,1.000000001758865)" style="font-size: 10px; font-family: Impact; fill: rgb(189, 158, 57);">prísť</text><text text-anchor="middle" transform="translate(20,146)rotate(0)scale(1,1)" style="font-size: 10px; font-family: Impact; fill: rgb(231, 186, 82);">nájsť</text><text text-anchor="middle" transform="translate(-189,-27)rotate(-24.000000601119346)skewX(3.1805547638674516e-15)scale(0.9999999740913329,0.9999999740913329)" style="font-size: 10px; font-family: Impact; fill: rgb(231, 203, 148);">žiť</text><text text-anchor="middle" transform="translate(-62,76)rotate(-35.99999933864986)skewX(-3.1805546758693507e-15)scale(1.000000001758865,1.000000001758865)" style="font-size: 10px; font-family: Impact; fill: rgb(132, 60, 57);">pracovať</text><text text-anchor="middle" transform="translate(30,116)rotate(11.999999380000418)skewX(1.5902773034365522e-15)scale(1.0000000234520143,1.0000000234520143)" style="font-size: 10px; font-family: Impact; fill: rgb(173, 73, 74);">hrať</text><text text-anchor="middle" transform="translate(72,-61)rotate(-59.99999955470795)scale(0.9999999865388264,0.9999999865388264)" style="font-size: 10px; font-family: Impact; fill: rgb(214, 97, 107);">učiť</text><text text-anchor="middle" transform="translate(-45,-108)rotate(47.99999869121278)skewX(0)scale(1.0000000000094964,1.0000000000094964)" style="font-size: 10px; font-family: Impact; fill: rgb(231, 150, 156);">pomôcť</text><text text-anchor="middle" transform="translate(193,105)rotate(59.99999955470795)scale(0.9999999865388264,0.9999999865388264)" style="font-size: 10px; font-family: Impact; fill: rgb(123, 65, 115);">hovoriť</text><text text-anchor="middle" transform="translate(233,-24)rotate(-11.999999380000418)skewX(-1.5902773034365522e-15)scale(1.0000000234520143,1.0000000234520143)" style="font-size: 10px; font-family: Impact; fill: rgb(165, 81, 148);">počuť</text><text text-anchor="middle" transform="translate(-61,94)rotate(-59.999999554707955)scale(0.9999999865388264,0.9999999865388264)" style="font-size: 10px; font-family: Impact; fill: rgb(206, 109, 189);">čítať</text><text text-anchor="middle" transform="translate(25,-103)rotate(-59.99999955470794)skewX(0)scale(0.9999999865388264,0.9999999865388264)" style="font-size: 10px; font-family: Impact; fill: rgb(222, 158, 214);">písať</text><text text-anchor="middle" transform="translate(18,125)rotate(35.99999933864986)skewX(3.1805546758693503e-15)scale(1.000000001758865,1.000000001758865)" style="font-size: 10px; font-family: Impact; fill: rgb(57, 59, 121);">poznať</text><text text-anchor="middle" transform="translate(-108,-76)rotate(-11.999999380000414)skewX(-1.5902773034365522e-15)scale(1.0000000234520143,1.0000000234520143)" style="font-size: 10px; font-family: Impact; fill: rgb(82, 84, 163);">cítiť</text><text text-anchor="middle" transform="translate(137,-86)rotate(24.000000601119346)skewX(-3.1805547638674512e-15)scale(0.9999999740913329,0.9999999740913329)" style="font-size: 10px; font-family: Impact; fill: rgb(107, 110, 207);">milovať</text><text text-anchor="middle" transform="translate(-204,-152)rotate(11.999999380000416)skewX(1.5902773034365522e-15)scale(1.0000000234520143,1.0000000234520143)" style="font-size: 10px; font-family: Impact; fill: rgb(156, 158, 222);">nenávidieť</text><text text-anchor="middle" transform="translate(112,-119)rotate(-35.99999933864985)skewX(-3.1805546758693503e-15)scale(1.000000001758865,1.000000001758865)" style="font-size: 10px; font-family: Impact; fill: rgb(99, 121, 57);">začať</text><text text-anchor="middle" transform="translate(-206,128)rotate(35.99999933864986)skewX(3.1805546758693503e-15)scale(1.000000001758865,1.000000001758865)" style="font-size: 10px; font-family: Impact; fill: rgb(140, 162, 82);">skončiť</text><text text-anchor="middle" transform="translate(-41,-51)rotate(0)skewX(0)scale(1,1)" style="font-size: 10px; font-family: Impact; fill: rgb(181, 207, 107);">získať</text><text text-anchor="middle" transform="translate(147,18)rotate(-47.99999869121278)scale(1.0000000000094964,1.0000000000094964)" style="font-size: 10px; font-family: Impact; fill: rgb(206, 219, 156);">stratiť</text><text text-anchor="middle" transform="translate(155,-101)rotate(-47.99999869121278)skewX(0)scale(1.0000000000094964,1.0000000000094964)" style="font-size: 10px; font-family: Impact; fill: rgb(140, 109, 49);">kúpiť</text><text text-anchor="middle" transform="translate(227,149)rotate(-59.99999955470795)scale(0.9999999865388264,0.9999999865388264)" style="font-size: 10px; font-family: Impact; fill: rgb(189, 158, 57);">predať</text><text text-anchor="middle" transform="translate(64,-73)rotate(-59.99999955470795)skewX(0)scale(0.9999999865388264,0.9999999865388264)" style="font-size: 10px; font-family: Impact; fill: rgb(231, 186, 82);">otvoriť</text><text text-anchor="middle" transform="translate(174,-138)rotate(35.99999933864986)skewX(3.1805546758693507e-15)scale(1.000000001758865,1.000000001758865)" style="font-size: 10px; font-family: Impact; fill: rgb(231, 203, 148);">zavrieť</text><text text-anchor="middle" transform="translate(205,-50)rotate(35.99999933864986)skewX(3.1805546758693503e-15)scale(1.000000001758865,1.000000001758865)" style="font-size: 10px; font-family: Impact; fill: rgb(132, 60, 57);">stať</text><text text-anchor="middle" transform="translate(-52,112)rotate(24.000000601119346)skewX(-3.1805547638674516e-15)scale(0.9999999740913329,0.9999999740913329)" style="font-size: 10px; font-family: Impact; fill: rgb(173, 73, 74);">čakať</text><text text-anchor="middle" transform="translate(31,-38)rotate(-35.99999933864986)skewX(-3.1805546758693503e-15)scale(1.000000001758865,1.000000001758865)" style="font-size: 10px; font-family: Impact; fill: rgb(214, 97, 107);">skúsiť</text><text text-anchor="middle" transform="translate(-159,-46)rotate(-59.99999955470795)skewX(0)scale(0.9999999865388264,0.9999999865388264)" style="font-size: 10px; font-family: Impact; fill: rgb(231, 150, 156);">veriť</text><text text-anchor="middle" transform="translate(74,-145)rotate(-24.000000601119353)skewX(3.1805547638674516e-15)scale(0.9999999740913329,0.9999999740913329)" style="font-size: 10px; font-family: Impact; fill: rgb(123, 65, 115);">pamätať</text><text text-anchor="middle" transform="translate(163,128)rotate(-35.99999933864986)skewX(-3.1805546758693503e-15)scale(1.000000001758865,1.000000001758865)" style="font-size: 10px; font-family: Impact; fill: rgb(165, 81, 148);">zabudnúť</text></g></svg>